<?xml version="1.0" encoding="UTF-8"?>
<!DOCTYPE svg PUBLIC "-//W3C//DTD SVG 1.1//EN" "http://www.w3.org/Graphics/SVG/1.1/DTD/svg11.dtd">
<!-- Creator: CorelDRAW -->
<svg xmlns="http://www.w3.org/2000/svg" xml:space="preserve" width="100%" height="100%" version="1.1" style="shape-rendering:geometricPrecision; text-rendering:geometricPrecision; image-rendering:optimizeQuality; fill-rule:evenodd; clip-rule:evenodd"
viewBox="0 0 6666.67 5000"
 xmlns:xlink="http://www.w3.org/1999/xlink"
 xmlns:xodm="http://www.corel.com/coreldraw/odm/2003">
 <defs>
  <style type="text/css">
   <![CDATA[
    .fil0 {fill:#003399;fill-rule:nonzero}
    .fil1 {fill:lime;fill-rule:nonzero}
   ]]>
  </style>
 </defs>
 <g id="Layer_x0020_1">
  <metadata id="CorelCorpID_0Corel-Layer"/>
  <polygon class="fil0" points="-0,0 6666.67,0 6666.67,5000 -0,5000 "/>
  <g id="_2482784770288">
   <polygon class="fil1" points="3393.75,4085.41 3420.83,4085.41 3629.17,4085.41 3842.71,3800 3876.04,3685.41 3952.08,3614.58 3952.08,3450 4160.42,3302.08 4160.42,3001.04 4111.46,2972.91 4116.67,2869.79 4253.13,2601.04 4308.33,2601.04 4532.29,2195.83 4532.29,2091.67 4488.54,2069.79 4379.17,2108.33 4340.63,2125 4313.54,2103.12 4318.75,2069.79 4264.58,2004.17 4198.96,2004.17 4143.75,1938.54 4105.21,1851.04 4066.67,1768.75 4012.5,1681.25 4007.29,1544.79 3990.63,1472.91 3963.54,1445.83 3934.37,1281.25 3902.08,1232.29 3847.92,1232.29 3809.37,1232.29 3765.63,1198.96 3629.17,1198.96 3525,1198.96 3541.67,1155.21 3470.83,1155.21 3393.75,1133.33 3426.04,1227.08 3393.75,1248.96 3393.75,1210.41 3272.92,1188.54 3272.92,1161.46 3207.29,1133.33 3119.79,1133.33 3119.79,1089.58 3119.79,1045.83 3119.79,996.87 3119.79,969.79 3119.79,936.46 3119.79,919.79 3048.96,892.71 2805.21,892.71 2726.04,958.33 2632.29,991.67 2566.67,1023.96 2566.67,996.87 2566.67,963.54 2512.5,963.54 2512.5,1002.08 2479.17,1072.91 2386.46,1133.33 2386.46,1193.75 2386.46,1248.96 2386.46,1325 2134.37,1489.58 2134.37,1861.46 2134.37,1933.33 2134.37,1987.5 2210.42,2069.79 2326.04,2185.41 2331.25,2256.25 2408.33,2310.41 2413.54,2360.41 2670.83,2377.08 2747.92,2321.87 2901.04,2305.21 3070.83,2377.08 3097.92,2639.58 3185.42,2770.83 3207.29,2885.41 3234.37,2945.83 3229.17,3039.58 3229.17,3137.5 3153.13,3192.71 3180.21,3411.46 3229.17,3547.91 3256.25,3794.79 3284.37,3997.91 3333.33,4085.41 3377.08,4107.29 "/>
   <path class="fil1" d="M4262.5 3660.41l51.04 -23.96 22.92 -22.92 17.71 -22.92 20.83 -10.42 9.37 -19.79 13.54 0 9.37 -103.13 7.29 -31.25 31.25 -10.42 15.63 -30.21 36.46 -30.21 0 -54.17 0 -154.17 -60.42 0 -9.37 63.54 -31.25 7.29 0 43.75 -36.46 9.37 -33.33 27.08 1.04 23.96c0,0 -17.71,42.71 -15.63,47.92 2.08,6.25 -10.42,22.92 -10.42,22.92l-40.63 4.17 0 44.79c0,0 6.25,40.63 0,44.79 -6.25,4.17 -19.79,15.63 -19.79,15.63l-17.71 44.79 19.79 27.08 4.17 58.33 14.59 28.12z"/>
   <g>
    <polygon class="fil1" points="4423.96,2788.54 4408.33,2751.04 4423.96,2710.41 4439.58,2710.41 4439.58,2750 4439.58,2769.79 4439.58,2788.54 "/>
   </g>
  </g>
 </g>
</svg>
