<?xml version="1.0" encoding="UTF-8"?>
<!DOCTYPE svg PUBLIC "-//W3C//DTD SVG 1.1//EN" "http://www.w3.org/Graphics/SVG/1.1/DTD/svg11.dtd">
<!-- Creator: CorelDRAW -->
<svg xmlns="http://www.w3.org/2000/svg" xml:space="preserve" width="100%" height="100%" version="1.1" style="shape-rendering:geometricPrecision; text-rendering:geometricPrecision; image-rendering:optimizeQuality; fill-rule:evenodd; clip-rule:evenodd"
viewBox="0 0 6666.67 5000"
 xmlns:xlink="http://www.w3.org/1999/xlink"
 xmlns:xodm="http://www.corel.com/coreldraw/odm/2003">
 <defs>
  <style type="text/css">
   <![CDATA[
    .fil0 {fill:#003399;fill-rule:nonzero}
    .fil1 {fill:lime;fill-rule:nonzero}
   ]]>
  </style>
 </defs>
 <g id="Layer_x0020_1">
  <metadata id="CorelCorpID_0Corel-Layer"/>
  <polygon class="fil0" points="-0,0 6666.67,0 6666.67,5000 -0,5000 "/>
  <g id="_2482657884928">
   <g>
    <path class="fil1" d="M2230.48 988.02c-36.46,0 -77.08,19.79 -90.63,43.75 -13.54,23.96 -44.79,42.71 -68.75,42.71 -23.96,-1.04 -51.04,13.54 -61.46,31.25 -9.37,17.71 -19.79,42.71 -22.92,55.21 -3.13,12.5 -9.37,37.5 -13.54,55.21 -4.17,17.71 -26.04,32.29 -48.96,32.29 -22.92,0 -46.87,-7.29 -55.21,-16.67 -7.29,-9.37 -29.17,-22.92 -48.96,-31.25 -18.75,-8.33 -45.83,-15.63 -60.42,-14.58 -13.54,0 -40.63,1.04 -60.42,1.04 -18.75,0 -56.25,20.83 -83.33,44.79l-2.08 2.08c-27.08,23.96 -48.96,66.67 -48.96,93.75 0,27.08 6.25,59.37 13.54,70.83 7.29,12.5 7.29,21.87 0,21.87 -7.29,0 -13.54,13.54 -13.54,30.21 0,16.67 3.13,38.54 8.33,48.96 4.17,10.42 14.58,32.29 21.87,48.96 7.29,16.67 31.25,29.17 52.08,27.08 20.83,-2.08 38.54,-13.54 39.58,-26.04 1.04,-11.46 15.63,-27.08 31.25,-32.29 16.67,-6.25 31.25,-16.67 32.29,-23.96 1.04,-7.29 12.5,-6.25 26.04,1.04 13.54,7.29 21.87,25 18.75,38.54 -3.13,13.54 -3.13,37.5 0,54.17 3.13,15.63 2.08,56.25 -3.13,88.54 -4.17,32.29 -2.08,62.5 6.25,66.67 7.29,4.17 17.71,20.83 22.92,37.5 5.21,16.67 10.42,43.75 12.5,59.37 2.08,15.63 18.75,36.46 37.5,45.83 18.75,9.37 48.96,17.71 66.67,17.71 17.71,0 39.58,8.33 47.92,18.75 8.33,10.42 31.25,35.42 52.08,55.21 19.79,19.79 47.92,41.67 61.46,48.96 13.54,7.29 33.33,13.54 43.75,13.54 10.42,0 19.79,-11.46 19.79,-25 0,-13.54 19.79,-35.42 43.75,-48.96 23.96,-13.54 60.42,-29.17 80.21,-35.42 19.79,-6.25 36.46,-21.87 36.46,-35.42 0,-13.54 10.42,-14.58 22.92,-3.13 12.5,12.5 43.75,21.87 69.79,21.87 26.04,0 60.42,5.21 77.08,11.46 16.67,6.25 30.21,21.87 30.21,35.42 0,13.54 -8.33,38.54 -18.75,55.21 -10.42,16.67 -40.63,43.75 -66.67,60.42 -26.04,16.67 -47.92,43.75 -47.92,60.42 0,16.67 -15.63,46.87 -34.37,68.75 -18.75,20.83 -41.67,55.21 -51.04,77.08 -9.37,20.83 -41.67,38.54 -72.92,38.54 -31.25,0 -62.5,13.54 -69.79,29.17 -7.29,15.63 -18.75,40.63 -26.04,54.17 -7.29,13.54 -12.5,36.46 -12.5,50 0,13.54 29.17,23.96 65.63,22.92l0 0c36.46,-1.04 75,-4.17 87.5,-5.21 12.5,-1.04 40.63,17.71 62.5,43.75 21.87,26.04 42.71,64.58 45.83,87.5 3.13,22.92 25,59.37 50,82.29 25,22.92 53.13,27.08 63.54,10.42 10.42,-16.67 23.96,-1.04 29.17,34.37l17.71 116.67c5.21,35.42 25,90.63 42.71,121.87l38.54 66.67c17.71,31.25 34.37,78.13 35.42,103.13 1.04,26.04 12.5,62.5 25,82.29 12.5,19.79 28.13,32.29 35.42,27.08 7.29,-4.17 21.87,-2.08 33.33,5.21 10.42,7.29 17.71,29.17 16.67,48.96 -1.04,19.79 10.42,33.33 27.08,30.21 16.67,-3.13 37.5,-8.33 46.87,-11.46 9.37,-3.13 15.63,-16.67 13.54,-30.21 -1.04,-13.54 -10.42,-27.08 -18.75,-30.21 -9.37,-3.13 -17.71,-21.87 -18.75,-40.63 -1.04,-19.79 -11.46,-40.63 -21.87,-46.87 -10.42,-6.25 -18.75,-40.63 -17.71,-77.08l2.08 -60.42c1.04,-36.46 21.87,-87.5 45.83,-114.58l10.42 -11.46c23.96,-27.08 58.33,-51.04 77.08,-54.17 17.71,-3.13 40.63,-18.75 48.96,-35.42 9.37,-16.67 37.5,-51.04 62.5,-76.04l43.75 -43.75c26.04,-26.04 61.46,-41.67 79.17,-35.42 17.71,6.25 47.92,11.46 65.63,11.46 17.71,0 34.37,26.04 35.42,57.29 1.04,31.25 16.67,63.54 33.33,69.79 16.67,7.29 33.33,35.42 38.54,62.5 4.17,28.13 27.08,53.13 48.96,56.25 22.92,3.13 42.71,22.92 43.75,43.75 1.04,20.83 6.25,67.71 10.42,103.13l17.71 159.37c4.17,35.42 15.63,69.79 26.04,76.04 10.42,6.25 26.04,27.08 35.42,46.87 9.37,19.79 16.67,42.71 16.67,52.08l0 52.08c0,19.79 -7.29,32.29 -16.67,27.08 -9.37,-4.17 -18.75,-35.42 -21.87,-68.75l-17.72 -0c-21.87,0 -25,-7.29 -25,-7.29 -16.67,-32.29 -37.5,-47.92 -48.96,-34.37 -10.42,13.54 -18.75,39.58 -18.75,57.29 0,17.71 11.46,50 25,70.83 13.54,20.83 36.46,55.21 52.08,77.08 14.58,20.83 26.04,48.96 25,62.5 -1.04,13.54 6.25,44.79 16.67,68.75 10.42,23.96 32.29,59.37 48.96,79.17 16.67,19.79 41.67,39.58 55.21,43.75 13.54,4.17 21.87,17.71 18.75,30.21 -3.13,12.5 9.37,40.63 27.08,62.5 17.71,22.92 46.87,40.63 62.5,40.63 16.67,0 43.75,11.46 60.42,25 16.67,13.54 51.04,25 77.08,25 26.04,0 45.83,-8.33 43.75,-18.75 -1.04,-10.42 -3.13,-31.25 -3.13,-46.87 0,-14.58 -6.25,-27.08 -13.54,-27.08 -7.29,0 -19.79,-8.33 -27.08,-18.75 -7.29,-10.42 -41.67,-18.75 -77.08,-18.75 -34.37,0 -62.5,-25 -62.5,-55.21 0,-30.21 -1.04,-69.79 -3.13,-87.5 -1.04,-17.71 -18.75,-51.04 -38.54,-73.96 -19.79,-22.92 -53.13,-52.08 -73.96,-65.63 -20.83,-13.54 -38.54,-35.42 -38.54,-48.96 0,-13.54 6.25,-26.04 13.54,-27.08 7.29,-1.04 17.71,4.17 21.87,13.54 4.17,9.37 19.79,10.42 33.33,3.13 13.54,-7.29 25,-28.13 25,-46.87l0 -55.21 0 -55.21c-3.13,3.13 -12.5,-5.21 -21.87,-18.75 -9.37,-13.54 -26.04,-34.37 -38.54,-46.87 -12.5,-12.5 -29.17,-51.04 -37.5,-85.42l-12.5 -53.13c-8.33,-35.42 -8.33,-70.83 1.04,-80.21 9.37,-9.37 31.25,-2.08 48.96,16.67 17.71,17.71 50,50 70.83,70.83 20.83,20.83 51.04,28.13 65.63,16.67 14.58,-12.5 26.04,-51.04 26.04,-87.5l-2.08 -70.83c-1.04,-36.46 18.75,-65.63 44.79,-65.63 26.04,0 43.75,-11.46 40.63,-25 -3.13,-13.54 -11.46,-40.63 -18.75,-60.42 -7.29,-19.79 -26.04,-35.42 -40.63,-35.42 -14.58,0 -27.08,-28.13 -27.08,-62.5 0,-34.37 25,-62.5 55.21,-62.5 30.21,0 77.08,-9.37 104.17,-21.87 27.08,-12.5 59.37,-32.29 70.83,-43.75 12.5,-12.5 39.58,-21.87 60.42,-21.87 20.83,0 62.5,-17.71 90.63,-39.58l86.46 -63.54c29.17,-21.87 53.13,-64.58 53.13,-96.87l0 -122.92 0 -48.96c0,-36.46 -6.25,-83.33 -13.54,-104.17 -7.29,-20.83 -18.75,-52.08 -25,-68.75 -6.25,-16.67 -3.13,-45.83 5.21,-65.63 9.37,-19.79 2.08,-52.08 -16.67,-70.83 -17.71,-19.79 -37.5,-40.63 -43.75,-46.87 -6.25,-6.25 0,-20.83 13.54,-33.33 13.54,-12.5 32.29,-23.96 40.63,-27.08 9.37,-3.13 42.71,-3.13 73.96,0 31.25,3.13 55.21,29.17 52.08,57.29 -3.13,28.13 9.37,64.58 27.08,79.17 17.71,14.58 37.5,46.87 43.75,70.83 6.25,23.96 26.04,44.79 43.75,46.87 17.71,1.04 33.33,-16.67 33.33,-40.63 0,-23.96 2.08,-70.83 5.21,-104.17 3.13,-33.33 3.13,-80.21 0,-104.17 -3.13,-23.96 10.42,-51.04 30.21,-60.42 19.79,-9.37 63.54,-27.08 96.87,-39.58l25 -9.37c34.37,-12.5 78.13,-31.25 96.87,-41.67 19.79,-10.42 40.63,-47.92 46.87,-84.37l0 -2.08c6.25,-35.42 1.04,-68.75 -11.46,-72.92 -12.5,-4.17 -42.71,-8.33 -68.75,-8.33 -26.04,0 -55.21,6.25 -65.63,13.54 -10.42,7.29 -39.58,12.5 -65.63,11.46 -26.04,-1.04 -50,-16.67 -55.21,-33.33 -4.17,-16.67 0,-38.54 11.46,-48.96 10.42,-10.42 35.42,-21.87 55.21,-25 19.79,-3.13 35.42,-16.67 35.42,-30.21 0,-13.54 -11.46,-48.96 -25,-79.17 -13.54,-30.21 -51.04,-65.63 -82.29,-79.17 -31.25,-13.54 -78.13,-45.83 -103.13,-71.87l-13.54 -13.54c-25,-26.04 -61.46,-63.54 -81.25,-83.33 -19.79,-19.79 -50,-35.42 -68.75,-35.42 -17.71,0 -44.79,1.04 -60.42,3.13 -14.58,1.04 -27.08,11.46 -27.08,21.87 0,10.42 -13.54,34.37 -30.21,52.08 -16.67,17.71 -52.08,48.96 -79.17,67.71 -27.08,19.79 -79.17,35.42 -114.58,34.37l-22.92 0c-36.46,0 -65.63,-5.21 -65.63,-10.42 0,-5.21 -29.17,-13.54 -64.58,-18.75l-109.37 -15.63c-35.42,-5.21 -64.58,3.13 -64.58,17.71 0,14.58 -20.83,27.08 -46.87,27.08 -26.04,0 -53.13,-16.67 -61.46,-36.46 -8.33,-19.79 -22.92,-41.67 -33.33,-48.96 -10.42,-7.29 -47.92,-9.37 -83.33,-5.21l-11.46 1.04c-35.42,4.17 -76.04,26.04 -89.58,47.92 -13.54,22.92 -45.83,45.83 -70.83,52.08 -26.04,6.25 -61.46,0 -79.17,-13.54 -17.71,-13.54 -57.29,-25 -86.46,-26.04 -29.17,-1.04 -62.5,5.21 -73.96,13.54 -11.46,8.33 -30.21,23.96 -42.71,34.37 -12.5,10.42 -21.87,10.42 -21.87,0 0,-10.42 -12.5,-19.79 -27.08,-19.79 -14.58,0 -34.37,-18.75 -43.75,-40.63 -9.37,-22.92 -30.21,-47.92 -46.87,-57.29 -16.67,-9.37 -58.33,-21.87 -92.71,-27.08 -34.37,-6.25 -90.63,-21.87 -123.96,-34.37l-80.21 -31.25c-33.33,-13.54 -72.92,-29.17 -86.46,-36.46 -14.58,-7.29 -42.71,-17.71 -62.5,-23.96 -20.83,-6.25 -66.67,-11.46 -103.13,-11.46l-23.96 0 0 2.08z"/>
   </g>
   <g>
    <path class="fil1" d="M4649.23 2199.48c-6.25,-2.08 -16.67,-10.42 -21.87,-17.71 -5.21,-7.29 -13.54,-13.54 -18.75,-13.54 -5.21,0 -15.63,-4.17 -22.92,-10.42 -8.33,-5.21 -7.29,-14.58 2.08,-20.83 9.37,-6.25 32.29,-17.71 52.08,-27.08l-2.08 -6.25c-2.08,-6.25 17.71,-27.08 23.96,-27.08l6.25 0c28.13,0 57.29,-7.29 65.63,-15.63 8.33,-8.33 20.83,-21.87 28.13,-30.21 7.29,-8.33 8.33,-28.13 2.08,-45.83l11.46 0 11.46 0c22.92,-8.33 44.79,-22.92 47.92,-32.29 3.13,-9.37 11.46,-28.13 17.71,-40.63 6.25,-13.54 12.5,-36.46 12.5,-52.08 0,-15.63 10.42,-33.33 22.92,-40.63 12.5,-7.29 28.13,-3.13 34.37,9.37l6.25 0 6.25 0c18.75,1.04 33.33,14.58 33.33,30.21l0 60.42c0,17.71 -7.29,35.42 -15.63,38.54 -8.33,4.17 -15.63,21.87 -15.63,40.63 0,18.75 -2.08,40.63 -4.17,47.92 -2.08,7.29 -6.25,19.79 -9.37,29.17 -2.08,8.33 -14.58,19.79 -28.13,26.04 -12.5,5.21 -27.08,13.54 -32.29,17.71 -5.21,4.17 -15.63,10.42 -23.96,13.54 -8.33,3.13 -18.75,5.21 -22.92,5.21 -4.17,0 -9.37,12.5 -12.5,29.17 -3.13,15.63 -7.29,29.17 -10.42,29.17 -3.13,0 -18.75,-6.25 -34.37,-13.54 -15.63,-7.29 -37.5,-13.54 -47.92,-13.54 -10.42,0 -19.79,3.13 -19.79,6.25 -1.04,4.17 -7.29,11.46 -15.63,17.71 -7.3,5.2 -18.75,8.33 -26.04,6.24z"/>
   </g>
   <g>
    <path class="fil1" d="M4906.52 1772.39c5.21,-4.17 11.46,-22.92 14.58,-43.75 3.13,-19.79 5.21,-44.79 5.21,-54.17 0,-9.37 5.21,-41.67 11.46,-70.83l19.8 0 19.79 0c22.92,0 55.21,12.5 70.83,27.08 15.63,14.58 38.54,29.17 51.04,31.25l2.08 11.46c2.08,11.46 -3.13,17.71 -3.13,17.71 -22.92,28.13 -42.71,59.37 -43.75,69.79 -1.04,10.42 -17.71,18.75 -36.46,18.75l-59.38 -0 -42.71 0c-10.42,0 -14.58,-3.13 -9.37,-7.29z"/>
   </g>
   <g>
    <path class="fil1" d="M3876.31 2825.52c-1.04,6.25 -9.37,11.46 -18.75,11.46 -9.37,0 -21.87,-6.25 -28.13,-13.54 -5.21,-7.29 -25,-17.71 -43.75,-21.87l6.25 -6.25 6.25 -6.25c18.75,-8.33 39.58,-19.79 46.87,-23.96 7.29,-5.21 18.75,0 26.04,11.46l11.46 0 11.46 0c6.25,11.46 11.46,25 11.46,29.17 0,4.17 -6.25,9.37 -14.58,9.37 -7.29,-1.04 -13.54,4.17 -14.58,10.42z"/>
   </g>
   <g>
    <path class="fil1" d="M4196.11 3043.23c-3.13,0 -12.5,-5.21 -20.83,-12.5 -8.33,-6.25 -23.96,-13.54 -33.33,-14.58l-11.46 -15.63 -11.46 -15.63c-8.33,-9.37 -3.13,-16.67 11.46,-15.63l6.25 -2.08 6.25 -2.08c14.58,12.5 29.17,33.33 33.33,46.87l13.54 -6.25 13.54 -6.25c8.33,-17.71 20.83,-39.58 28.13,-48.96 6.25,-9.37 12.5,-28.13 12.5,-40.63l0 -47.92c0,-13.54 5.21,-17.71 11.46,-10.42 6.25,8.33 9.37,27.08 6.25,43.75l13.54 0 13.54 0c5.21,4.17 9.37,15.63 9.37,26.04 0,10.42 -1.04,27.08 -2.08,36.46l-6.25 4.17c-6.25,4.17 -27.08,17.71 -35.42,29.17 -9.37,11.46 -11.46,20.83 -15.63,32.29 -4.17,11.46 -13.54,20.83 -21.87,20.83l-20.83 0 0 -1.04z"/>
   </g>
   <g>
    <path class="fil1" d="M4245.07 3352.6c3.13,7.29 10.42,8.33 15.63,1.04 5.21,-6.25 23.96,-18.75 40.63,-28.13l-4.17 -6.25c-4.17,-6.25 -3.13,-36.46 -3.13,-36.46 2.08,-36.46 -2.08,-73.96 -8.33,-83.33 -6.25,-9.37 -22.92,-23.96 -37.5,-31.25 -14.58,-7.29 -31.25,-19.79 -36.46,-28.13 -6.25,-8.33 -14.58,-22.92 -19.79,-33.33 -5.21,-10.42 -17.71,-20.83 -27.08,-22.92 -9.37,-2.08 -10.42,23.96 -2.08,57.29l4.17 15.63c4.17,15.63 4.17,31.25 19.79,42.71l15.63 11.46c-1.04,22.92 -1.04,45.83 -1.04,51.04 0,5.21 -4.17,10.42 -9.37,12.5 -5.21,2.08 -8.33,8.33 -6.25,13.54 2.08,5.21 10.42,11.46 19.79,13.54 9.37,2.08 20.83,11.46 26.04,20.83 4.16,8.33 10.41,22.92 13.54,30.21z"/>
   </g>
   <g>
    <path class="fil1" d="M4249.23 3136.98c-4.17,0 -7.29,-9.37 -7.29,-19.79 0,-11.46 7.29,-19.79 15.63,-19.79 8.33,0 15.63,7.29 15.63,15.63 0,8.33 -3.13,17.71 -7.29,19.79 -5.21,2.08 -11.46,4.17 -16.67,4.17z"/>
   </g>
   <g>
    <path class="fil1" d="M3906.52 3801.56c0,-3.13 14.58,-5.21 32.29,-5.21 17.71,0 32.29,-10.42 32.29,-21.87 0,-11.46 7.29,-25 16.67,-29.17 9.37,-4.17 16.67,-30.21 16.67,-60.42 0,-29.17 4.17,-58.33 9.37,-64.58 5.21,-6.25 9.37,-40.63 9.37,-77.08l0 -163.54c0,-36.46 -11.46,-65.63 -23.96,-65.63 -13.54,0 -30.21,7.29 -36.46,16.67 -6.25,9.37 -13.54,23.96 -15.63,32.29 -2.08,8.33 -11.46,20.83 -20.83,28.13 -9.37,6.25 -23.96,12.5 -31.25,12.5 -7.29,0 -22.92,15.63 -34.37,34.37 -11.46,18.75 -36.46,47.92 -54.17,65.63 -18.75,16.67 -36.46,35.42 -40.63,41.67 -4.17,6.25 -19.79,10.42 -35.42,10.42 -15.63,0 -28.13,13.54 -28.13,29.17 0,16.67 6.25,34.37 14.58,39.58 8.33,5.21 14.58,30.21 15.63,54.17 1.04,23.96 8.33,48.96 17.71,55.21 9.37,6.25 22.92,12.5 30.21,13.54 7.29,1.04 18.75,6.25 23.96,11.46 6.25,5.21 26.04,9.37 45.83,9.37l12.5 0.01 12.5 0c18.75,0 33.33,9.37 33.33,19.79l-0 13.54 -2.08 0z"/>
   </g>
   <g>
    <path class="fil1" d="M4072.15 3841.15c-11.46,0 -21.87,-2.08 -23.96,-5.21 -1.04,-3.13 -8.33,-15.63 -14.58,-29.17 -6.25,-12.5 -8.33,-38.54 -4.17,-57.29 4.17,-18.75 10.42,-40.63 14.58,-50 4.17,-9.37 15.63,-20.83 25,-27.08 9.37,-5.21 17.71,-15.63 17.71,-22.92 0,-7.29 6.25,-21.87 14.58,-33.33 8.33,-11.46 14.58,-28.13 14.58,-37.5 0,-9.37 15.63,-20.83 34.37,-23.96 18.75,-4.17 54.17,-4.17 79.17,0 23.96,4.17 44.79,14.58 44.79,23.96 0,9.37 -2.08,20.83 -4.17,23.96l-11.46 0c-11.46,0 -44.79,1.04 -44.79,1.04 -36.46,1.04 -75,9.37 -87.5,18.75 -11.46,9.37 -18.75,26.04 -14.58,36.46 3.13,10.42 19.79,25 35.42,32.29 15.63,7.29 29.17,23.96 30.21,37.5 1.04,13.54 5.21,39.58 10.42,57.29l14.58 0 14.58 0c4.17,5.21 4.17,18.75 1.04,31.25 -3.13,12.5 -12.5,19.79 -19.79,17.71 -8.33,-2.08 -15.63,-2.08 -16.67,0 -1.04,2.08 -4.17,4.17 -6.25,4.17 -2.08,0 -15.63,-5.21 -30.21,-11.46 -14.58,-6.25 -28.13,-13.54 -32.29,-16.67 -4.17,-3.13 -9.37,2.08 -12.5,11.46 -4.17,10.41 -16.67,18.75 -28.13,18.75z"/>
   </g>
   <g>
    <path class="fil1" d="M4406.52 3641.15c-7.29,2.08 -13.54,0 -13.54,-4.17 0,-5.21 -6.25,-14.58 -14.58,-21.87 -8.33,-7.29 -14.58,-18.75 -14.58,-23.96 0,-6.25 6.25,-11.46 14.58,-11.46 8.33,0 20.83,4.17 28.13,9.37 7.29,5.21 13.54,14.58 13.54,21.87l0 19.79c0,3.12 -6.25,7.29 -13.54,10.41z"/>
   </g>
   <g>
    <g>
     <path class="fil1" d="M4506.52 3657.81c-6.25,6.25 -11.46,17.71 -11.46,23.96 0,6.25 11.46,17.71 23.96,22.92 13.54,6.25 23.96,16.67 23.96,25 0,7.29 10.42,20.83 21.87,31.25 12.5,9.37 30.21,19.79 40.63,22.92 10.42,3.13 23.96,13.54 31.25,21.87 6.25,9.37 17.71,20.83 22.92,26.04 6.25,5.21 14.58,17.71 17.71,29.17 4.17,11.46 6.25,36.46 6.25,55.21 0,19.79 7.29,39.58 15.63,44.79 8.33,5.21 29.17,9.37 45.83,9.37 16.67,0 37.5,8.33 45.83,18.75 8.33,10.42 29.17,18.75 44.79,18.75 15.63,0 28.13,-4.17 28.13,-10.42l0 -28.13 0 -51.04c0,-18.75 -5.21,-37.5 -11.46,-43.75 -6.25,-5.21 -11.46,-31.25 -11.46,-56.25l0 -11.46c0,-11.46 -11.46,-46.87 -13.54,-64.58 -2.08,-17.71 -15.63,-9.37 -20.83,-9.37 -6.25,0 -52.08,-2.08 -61.46,-2.08l-9.39 0c-21.87,-2.08 -61.46,-8.33 -86.46,-13.54 -26.04,-5.21 -66.67,-10.42 -90.63,-13.54l-6.25 0 -6.25 0c-1.04,-28.13 -8.33,-53.13 -16.67,-55.21 -2.08,-1.04 -3.13,-1.04 -5.21,-1.04 -5.21,2.08 -13.54,5.21 -17.71,10.42z"/>
    </g>
   </g>
   <g>
    <path class="fil1" d="M4239.86 2648.44c-9.37,7.29 -17.71,5.21 -17.71,-5.21 0,-10.42 -8.33,-23.96 -17.71,-29.17l17.71 -15.63 17.71 -15.63c9.37,-16.67 22.92,-29.17 30.21,-29.17 7.29,0 12.5,8.33 12.5,18.75l0 27.08c0,5.21 -5.21,14.58 -12.5,22.92 -7.29,7.29 -20.83,18.75 -30.21,26.04z"/>
   </g>
   <g>
    <path class="fil1" d="M4391.94 2673.44l11.46 0c9.37,0 16.67,5.21 16.67,10.42 0,6.25 -17.71,1.04 -38.54,-10.42l10.42 0z"/>
   </g>
  </g>
 </g>
</svg>
