<?xml version="1.0" encoding="UTF-8"?>
<!DOCTYPE svg PUBLIC "-//W3C//DTD SVG 1.1//EN" "http://www.w3.org/Graphics/SVG/1.1/DTD/svg11.dtd">
<!-- Creator: CorelDRAW -->
<svg xmlns="http://www.w3.org/2000/svg" xml:space="preserve" width="100%" height="100%" version="1.1" style="shape-rendering:geometricPrecision; text-rendering:geometricPrecision; image-rendering:optimizeQuality; fill-rule:evenodd; clip-rule:evenodd"
viewBox="0 0 6666.67 5000"
 xmlns:xlink="http://www.w3.org/1999/xlink"
 xmlns:xodm="http://www.corel.com/coreldraw/odm/2003">
 <defs>
  <style type="text/css">
   <![CDATA[
    .fil0 {fill:#003399;fill-rule:nonzero}
    .fil1 {fill:lime;fill-rule:nonzero}
   ]]>
  </style>
 </defs>
 <g id="Layer_x0020_1">
  <metadata id="CorelCorpID_0Corel-Layer"/>
  <polygon class="fil0" points="-0,0 6666.67,0 6666.67,5000 -0,5000 "/>
  <g id="_2483338366832">
   <path class="fil1" d="M2222.37 2949.51c51.04,36.46 44.79,45.83 39.58,103.13 -5.21,57.29 3.13,65.63 -62.5,67.71 -43.75,1.04 -246.87,-39.58 -250,20.83 -8.33,-3.13 -25,0 -32.29,-3.13 -20.83,53.13 21.87,98.96 2.08,152.08 -19.79,55.21 -44.79,68.75 -18.75,130.21 29.17,68.75 43.75,8.33 90.63,41.67 20.83,14.58 10.42,60.42 35.42,70.83 26.04,10.42 47.92,-23.96 69.79,-32.29 57.29,-22.92 87.5,-6.25 139.58,-46.87 50,-39.58 72.92,-45.83 80.21,-110.42 9.37,-86.46 53.13,-67.71 102.08,-121.87 35.42,-38.54 13.54,-80.21 81.25,-80.21 32.29,0 53.13,15.63 87.5,4.17 37.5,-12.5 56.25,-45.83 86.46,-66.67 53.13,-35.42 129.17,2.08 86.46,69.79 55.21,47.92 138.54,75 201.04,115.63 52.08,33.33 107.29,119.79 17.71,142.71 -40.63,10.42 -77.08,-4.17 -117.71,16.67 11.46,19.79 26.04,27.08 44.79,38.54 7.29,5.21 21.87,-3.13 31.25,3.13 7.29,4.17 17.71,30.21 23.96,30.21 43.75,4.17 14.58,-61.46 47.92,-73.96 11.46,-4.17 22.92,25 44.79,11.46 8.33,-5.21 18.75,-41.67 21.87,-51.04 3.13,-9.37 20.83,-11.46 20.83,-23.96 0,-7.29 -13.54,-19.79 -12.5,-20.83 2.08,-13.54 -31.25,-28.13 11.46,-31.25 39.58,29.17 43.75,-8.33 26.04,-37.5 -22.92,-36.46 -71.87,-35.42 -103.13,-59.37 -26.04,-19.79 -39.58,-52.08 -64.58,-73.96 -23.96,-20.83 -63.54,-32.29 -78.13,-62.5 -19.79,-40.63 -4.17,-59.37 37.5,-44.79 36.46,12.5 67.71,62.5 97.92,86.46 41.67,32.29 86.46,54.17 136.46,70.83 58.33,19.79 55.21,13.54 55.21,69.79 0,66.67 26.04,45.83 58.33,96.87 15.63,25 -1.04,81.25 46.87,63.54 -112.5,41.67 55.21,123.96 42.71,36.46 -18.75,-3.13 -12.5,-8.33 -23.96,-16.67 33.33,-35.42 117.71,30.21 69.79,-38.54 -14.58,-20.83 -28.13,-16.67 -40.63,-42.71 -9.37,-18.75 -6.25,-46.87 -16.67,-67.71 11.46,5.21 27.08,7.29 36.46,15.63 -2.08,-73.96 73.96,-17.71 113.54,-13.54 54.17,5.21 81.25,-13.54 115.63,-41.67 -36.46,-14.58 -31.25,-30.21 -36.46,-63.54 -1.04,-4.17 -3.13,-36.46 -3.13,-37.5 3.13,-10.42 16.67,-22.92 17.71,-28.13 6.25,-25 12.5,-51.04 25,-71.87 17.71,-30.21 40.63,-39.58 45.83,-79.17 37.5,0 70.83,23.96 108.33,23.96 45.83,0 127.08,-23.96 167.71,-42.71 16.67,-7.29 54.17,-58.33 67.71,-11.46 11.46,43.75 -68.75,35.42 -51.04,82.29 5.21,13.54 78.13,57.29 92.71,62.5 19.79,6.25 46.87,-6.25 68.75,-3.13 29.17,5.21 58.33,21.87 86.46,31.25 48.96,16.67 85.42,37.5 130.21,60.42 13.54,7.29 101.04,55.21 112.5,54.17 60.42,-8.33 11.46,-91.67 4.17,-122.92 -9.37,-37.5 -4.17,-82.29 17.71,-114.58 -37.5,-19.79 -17.71,-34.37 -27.08,-61.46 -10.42,-30.21 -17.71,-32.29 -42.71,-55.21 -31.25,-28.13 -83.33,-95.83 -19.79,-121.87 34.37,58.33 57.29,-17.71 83.33,-35.42 41.67,-28.13 87.5,-8.33 131.25,3.13 43.75,11.46 101.04,33.33 135.42,-8.33 33.33,-40.63 -2.08,-83.33 2.08,-126.04 4.17,-45.83 51.04,-76.04 47.92,-123.96 -2.08,-38.54 -35.42,-81.25 -46.87,-117.71 -29.17,-90.63 -72.92,-188.54 -81.25,-283.33 -4.17,-59.37 3.13,-107.29 58.33,-132.29 52.08,-22.92 86.46,-21.87 76.04,-93.75 -109.37,-28.13 -218.75,-53.13 -322.92,-93.75 10.42,46.87 94.79,44.79 101.04,79.17 11.46,56.25 -67.71,15.63 -85.42,5.21 -10.42,18.75 -18.75,14.58 -38.54,16.67 -10.42,1.04 -18.75,-14.58 -31.25,-12.5 -6.25,1.04 -14.58,14.58 -18.75,14.58 -25,2.08 -12.5,13.54 -39.58,3.13 -15.63,-6.25 -21.87,-14.58 -20.83,-34.37 -22.92,4.17 -22.92,23.96 -45.83,29.17 -16.67,4.17 -36.46,-13.54 -55.21,-9.37 -37.5,8.33 -64.58,51.04 -97.92,66.67 -39.58,18.75 -83.33,20.83 -64.58,-28.13 7.29,-20.83 51.04,10.42 21.87,-33.33 -15.63,-23.96 -71.87,-28.13 -96.87,-25 -1.04,2.08 -8.33,20.83 -8.33,23.96 46.87,13.54 9.37,29.17 12.5,45.83 4.17,25 12.5,39.58 29.17,60.42 -18.75,20.83 -62.5,22.92 -67.71,-6.25 -26.04,-3.13 -105.21,34.37 -122.92,54.17 13.54,13.54 33.33,21.87 43.75,38.54 -46.87,42.71 -78.13,-35.42 -114.58,-33.33 -3.13,22.92 12.5,42.71 29.17,55.21 -23.96,8.33 -85.42,-5.21 -101.04,-27.08 -19.79,-27.08 5.21,-51.04 -33.33,-77.08 -13.54,-9.37 -108.33,-32.29 -44.79,-43.75 57.29,-10.42 105.21,73.96 165.63,70.83 47.92,-3.13 75,-52.08 123.96,-55.21 -33.33,-38.54 -115.63,-59.37 -164.58,-77.08 -82.29,-30.21 -192.71,-62.5 -280.21,-67.71 18.75,-107.29 -367.71,4.17 -404.17,10.42 -36.46,22.92 -50,55.21 -79.17,84.37 -33.33,34.37 -83.33,38.54 -117.71,69.79 -32.29,29.17 -42.71,73.96 -78.13,103.13 -29.17,25 -68.75,44.79 -102.08,64.58 -80.21,45.83 -153.13,82.29 -98.96,189.58 20.83,40.63 61.46,85.42 109.37,65.63 36.46,-15.63 64.58,-97.92 115.63,-70.83 61.46,32.29 16.67,201.04 130.21,190.63 22.92,-2.08 97.92,-41.67 108.33,-61.46 20.83,-39.58 -10.42,-62.5 30.21,-100 44.79,-41.67 46.87,-20.83 10.42,-76.04 -30.21,-45.83 -20.83,-53.13 7.29,-100 28.13,-46.87 145.83,-200 205.21,-180.21 73.96,25 10.42,98.96 -21.87,121.87 -50,35.42 -71.87,61.46 -42.71,126.04 18.75,39.58 41.67,55.21 86.46,59.37 52.08,4.17 86.46,-35.42 133.33,-34.37 27.08,0 54.17,20.83 76.04,35.42 -48.96,29.17 -194.79,-32.29 -208.33,41.67 51.04,15.63 31.25,90.63 -13.54,97.92 -28.13,5.21 -81.25,-77.08 -93.75,-5.21 -4.17,25 27.08,47.92 27.08,73.96 1.04,48.96 -5.21,16.67 -41.67,35.42 -17.71,9.37 -32.29,37.5 -53.13,40.63 -29.17,4.17 -42.71,-23.96 -69.79,-26.04 -31.25,-2.08 -52.08,20.83 -80.21,27.08 -26.04,5.21 -55.21,-18.75 -59.37,19.79 -40.63,-9.37 -26.04,-45.83 -72.92,-38.54 -28.13,4.17 -53.13,51.04 -90.63,22.92 -31.25,-22.92 -6.25,-64.58 1.04,-80.21 9.37,-21.87 47.92,-34.37 -7.29,-52.08 55.21,-25 2.08,-62.5 -38.54,-41.67 -36.46,19.79 -34.37,65.63 -23.96,101.04 10.42,36.46 36.46,54.17 6.25,90.63 -26.04,31.25 -76.04,28.13 -116.67,37.5 -58.33,13.54 -79.17,26.04 -57.29,83.33 -45.83,0 -80.21,9.37 -114.58,38.54 -28.13,23.96 -36.46,70.83 -80.21,52.08 -12.5,29.17 -46.87,34.37 -53.13,0 -33.33,-15.63 -33.33,18.75 -26.04,41.67 -37.5,1.04 -76.04,27.08 -115.63,31.25 2.08,31.25 39.58,30.21 63.54,44.79 9.37,5.21 30.21,10.42 34.37,21.87 0,-3.12 1.04,31.26 -8.33,23.96z"/>
   <g>
    <path class="fil1" d="M2005.7 2672.43c-36.46,27.08 -111.46,48.96 -84.37,-20.83 6.25,-17.71 33.33,-22.92 36.46,-41.67 4.17,-20.83 -23.96,-23.96 -20.83,-41.67 11.46,-67.71 195.83,-117.71 133.33,-19.79 48.96,7.29 58.33,39.58 21.87,75 -8.33,7.29 -34.37,20.83 -43.75,28.13 -18.75,15.63 -3.13,39.58 -51.04,30.21l8.34 -9.38zm0 0l0 0 0 0z"/>
   </g>
   <g>
    <path class="fil1" d="M2205.7 2690.14c-33.33,17.71 -55.21,-4.17 -48.96,-36.46 5.21,-29.17 53.13,-39.58 15.63,-66.67 13.54,-22.92 40.63,-15.63 58.33,-5.21 6.25,-27.08 -38.54,-63.54 -54.17,-77.08 -18.75,-16.67 -28.13,14.58 -34.37,-22.92 -4.17,-25 23.96,-28.13 20.83,-45.83 -2.08,-14.58 -30.21,-19.79 -34.37,-40.63 0,-1.04 16.67,-50 17.71,-51.04 23.96,-26.04 77.08,-25 105.21,-41.67 9.37,30.21 -25,18.75 -25,39.58 -1.04,36.46 11.46,15.63 32.29,32.29 18.75,14.58 38.54,5.21 35.42,38.54 -2.08,22.92 -36.46,26.04 -40.63,42.71 -8.33,34.37 57.29,23.96 70.83,63.54 6.25,17.71 -10.42,30.21 -1.04,52.08 4.17,10.42 22.92,26.04 32.29,32.29 42.71,31.25 62.5,36.46 15.63,90.63 2.08,5.21 5.21,11.46 7.29,16.67 -36.46,33.33 -101.04,6.25 -144.79,15.63 -43.75,9.37 -89.58,28.13 -135.42,20.83 32.29,-31.25 64.58,-50 110.42,-58.33l-3.13 1.04zm0 0l0 0 0 0z"/>
   </g>
   <g>
    <path class="fil1" d="M4220.28 1680.76c39.58,21.87 83.33,61.46 132.29,46.87 73.96,-21.87 -14.58,-35.42 -22.92,-77.08 -16.67,-87.5 110.42,-125 170.83,-136.46 41.67,-7.29 113.54,-4.17 145.83,-34.37 -34.37,-35.42 -75,4.17 -111.46,11.46 -38.54,8.33 -83.33,-1.04 -122.92,2.08 -91.67,7.29 -148.96,56.25 -206.25,122.92 -48.96,57.29 -6.25,60.42 48.96,67.71l-34.37 -3.13zm0 0l0 0 0 0z"/>
   </g>
   <g>
    <path class="fil1" d="M2712.99 3158.89c-12.5,32.29 -10.42,125 26.04,63.54 22.92,-38.54 -32.29,-98.96 -35.42,-42.71l9.37 -20.83zm0 0l0 0 0 0z"/>
   </g>
   <g>
    <path class="fil1" d="M2729.66 3320.35c-58.33,5.21 -21.87,107.29 17.71,42.71 46.87,-76.04 -61.46,-95.83 -30.21,-17.71l12.5 -25zm0 0l0 0 0 0z"/>
   </g>
   <g>
    <path class="fil1" d="M3807.78 3004.72c-69.79,-11.46 -15.63,45.83 1.04,59.37 21.87,-2.08 91.67,-12.5 106.25,-29.17 -14.58,-19.79 -29.17,-1.04 -38.54,-7.29 1.04,0 -16.67,1.04 -20.83,-1.04 -4.17,-2.08 2.08,-19.79 -1.04,-21.87 -19.79,-8.33 -50,-30.21 -63.54,4.17l16.67 -4.17zm0 0l0 0 0 0z"/>
   </g>
   <g>
    <path class="fil1" d="M3087.99 2362.01c63.54,-48.96 10.42,45.83 8.33,59.37 -3.13,0 -12.5,-1.04 -15.63,0 -9.37,-18.75 -3.13,-39.58 7.29,-54.17l0 -5.21zm0 0l0 0 0 0z"/>
   </g>
   <g>
    <path class="fil1" d="M3100.49 2233.89c7.29,3.13 17.71,15.63 25,22.92 -18.75,19.79 -32.29,1.04 -34.37,-22.92l9.37 0zm0 0l0 0 0 0z"/>
   </g>
   <g>
    <path class="fil1" d="M3164.04 2064.1c16.67,-11.46 29.17,-27.08 46.87,-33.33 11.46,27.08 -15.63,47.92 -41.67,45.83 -1.04,-5.21 0,-10.42 -1.04,-16.67l-4.17 4.17zm0 0l0 0 0 0z"/>
   </g>
   <g>
    <path class="fil1" d="M4126.54 1787.01c45.83,-22.92 55.21,31.25 1.04,16.67 0,0 0,-11.46 0,-11.46 10.42,-5.21 21.87,-8.33 33.33,-9.37l-34.38 4.17zm0 0l0 0 0 0z"/>
   </g>
  </g>
 </g>
</svg>
