<?xml version="1.0" encoding="UTF-8"?>
<!DOCTYPE svg PUBLIC "-//W3C//DTD SVG 1.1//EN" "http://www.w3.org/Graphics/SVG/1.1/DTD/svg11.dtd">
<!-- Creator: CorelDRAW -->
<svg xmlns="http://www.w3.org/2000/svg" xml:space="preserve" width="100%" height="100%" version="1.1" style="shape-rendering:geometricPrecision; text-rendering:geometricPrecision; image-rendering:optimizeQuality; fill-rule:evenodd; clip-rule:evenodd"
viewBox="0 0 6666.67 5000"
 xmlns:xlink="http://www.w3.org/1999/xlink"
 xmlns:xodm="http://www.corel.com/coreldraw/odm/2003">
 <defs>
  <style type="text/css">
   <![CDATA[
    .fil0 {fill:#003399;fill-rule:nonzero}
    .fil1 {fill:lime;fill-rule:nonzero}
   ]]>
  </style>
 </defs>
 <g id="Layer_x0020_1">
  <metadata id="CorelCorpID_0Corel-Layer"/>
  <polygon class="fil0" points="-0,0 6666.67,0 6666.67,5000 -0,5000 "/>
  <g id="_2482773018928">
   <path class="fil1" d="M3112.5 1379.69c-5.21,0 -62.5,18.75 -62.5,18.75l-9.37 20.83 -18.75 39.58 -30.2 -0 11.46 25 26.04 18.75 43.75 25 51.04 -0 22.92 -13.54 -4.17 -43.75 11.46 -11.46 37.5 0 0 25 15.63 20.83 20.83 22.92 11.46 32.29 65.63 -7.29 20.83 22.92 -7.29 30.21 -51.04 4.17 -13.54 62.5 -56.25 11.46 -2.08 -30.21 -56.25 0 -7.29 -20.83 -96.87 -5.21 -20.83 -22.92 -30.21 2.08 -18.75 -18.75 -51.04 2.08 -2.08 37.5 -39.58 9.37 -2.08 16.67 -46.87 0.01 -5.21 -28.13 -18.75 -2.08 6.25 13.54 -53.13 39.58 -65.63 0 -4.17 -26.04 -83.33 4.17 -17.71 -17.71 -34.37 -26.04 -92.71 0 0 -21.87 -61.46 0 -8.33 -21.87 -211.46 -4.17 -79.17 -21.87 -65.63 -0 -31.25 21.87 -39.58 0 -57.29 35.42 -39.58 57.29 -21.87 70.83 35.42 39.58 13.54 21.87 -35.42 0 -39.58 0 -53.13 0 -39.58 0 26.04 35.42 35.42 57.29 110.41 0 0 31.25 -26.04 21.87 -61.46 31.25 -21.87 35.42 26.04 -0 0 53.13 53.13 20.83 35.41 0 26.04 50 35.42 0 21.87 48.96 -31.25 57.29 -53.13 39.58 31.25 39.58 0 -35.42 48.96 -8.33 43.75 -4.17 0 -43.75 35.42 -8.33 17.71 0.01 21.87 48.96 53.13 0 0 -35.42 -53.13 -39.58 61.46 -107.29 54.17 0 54.17 0 35.42 0 143.75 0 126.04 98.96 54.16 0 44.8 0 0 98.96 35.42 -62.5 44.79 89.58 81.25 98.96 44.79 107.29 62.5 36.46 0 89.58 89.58 0.01 36.46 0 -27.08 81.25c-27.08,81.25 9.37,377.08 44.79,404.17 35.42,27.08 188.54,260.42 188.54,260.42l107.29 215.63 7.29 25 20.83 -0 4.17 -16.67 0 -9.37 0 -20.83c0,0 0,-37.5 -4.17,-43.75 -4.17,-5.21 -9.37,-37.5 -9.37,-37.5l0 -79.17c0,-7.29 20.83,32.29 20.83,32.29l22.92 20.83 51.04 53.13 11.46 15.63c0,0 60.42,125 64.58,132.29 4.17,7.29 5.21,28.13 5.21,28.13l-18.75 13.54 2.08 34.37 58.33 48.96c0,0 16.67,16.67 16.67,28.13 0,11.46 -13.54,35.42 -13.54,35.42l11.46 13.54 62.5 -0 96.87 0 46.87 32.29c0,0 26.04,26.04 26.04,32.29 0,5.21 41.67,26.04 41.67,26.04l71.87 4.17c0,0 11.46,30.21 11.46,37.5l0 55.21c0,13.54 45.83,45.83 51.04,46.87 5.21,2.08 35.42,22.92 35.42,22.92l41.67 0 11.46 -7.29 -30.21 -43.75c0,0 18.75,-157.29 18.75,-178.13 0,-20.83 -18.75,-22.92 -18.75,-22.92l-13.54 -14.58c0,0 5.21,-136.46 2.08,-151.04 -4.17,-14.58 -4.17,-43.75 -4.17,-43.75 0,0 -34.37,25 -39.58,30.21 -5.21,5.21 -48.96,25 -55.21,34.37 -6.25,9.37 -18.75,13.54 -25,20.83 -5.21,7.29 -4.17,37.5 -4.17,43.75 0,6.25 -37.5,22.92 -43.75,20.83 -5.21,-2.08 -25,0 -25,0l-30.2 0 -9.37 -22.92 -30.21 0 -26.04 -28.13 -9.37 -43.75 -16.67 0 -7.29 -35.42c0,0 4.17,-76.04 4.17,-97.92l0 -51.04 30.21 -102.08 37.5 -5.21 16.67 -43.75 13.54 5.21 127.08 26.04 51.04 -7.29 0 -41.67 94.79 32.29 28.13 2.08 16.67 20.83c0,0 5.21,46.87 5.21,64.58 0,16.67 67.71,69.79 67.71,69.79l39.58 -2.08 5.21 -67.71 -20.83 -25 0 -100 26.04 -58.33 26.04 -83.33 65.63 -25 -15.63 -97.92 60.42 -48.96 7.29 -85.42 34.37 -16.67 43.75 -7.29c0,0 11.46,-37.5 11.46,-43.75 0,-5.21 22.92,-22.92 22.92,-22.92l34.37 18.75 11.46 28.13 26.04 4.17 15.63 0c7.29,0 14.58,-4.17 14.58,-4.17l15.63 -13.54c0,0 -18.75,-30.21 -30.21,-35.42 -11.46,-5.21 -7.29,-20.83 -7.29,-20.83 0,0 0,-53.13 -7.29,-60.42 -7.29,-7.29 13.54,-20.83 13.54,-20.83l22.92 41.67 16.67 39.58 53.13 -2.08 37.5 0.01 32.29 -34.37 48.96 -48.96 -73.96 -0 20.83 -35.42 -64.58 -2.08c0,0 -11.46,-30.21 -11.46,-35.42 0,-5.21 4.17,-39.58 4.17,-39.58 0,0 -39.58,5.21 -51.04,5.21 -11.46,0 -5.21,9.37 -5.21,9.37l-60.42 16.67 -2.08 -58.33 35.42 -5.21 32.29 -18.75 107.29 -16.67 73.96 -4.17 53.13 -58.33 32.29 -62.5c0,0 -30.21,-45.83 -64.58,-45.83 -34.37,0 -77.08,-65.63 -77.08,-65.63l-55.21 -83.33 -35.42 -111.46 -28.13 -9.37c0,0 -39.58,7.29 -45.83,7.29 -5.21,0 -18.75,39.58 -18.75,39.58l-7.29 18.75 -35.42 9.37 -28.13 -11.46 0 -48.96 -20.83 -62.5c0,0 -41.67,4.17 -46.87,4.17 -5.21,0 -9.37,-45.83 -9.37,-45.83 0,0 -34.37,7.29 -41.67,7.29l-60.41 0 0 -37.5 -37.5 2.08 -28.13 20.83 -4.17 106.25 -30.21 -4.17 13.54 76.04 43.75 9.37 11.46 73.96 -26.04 60.42 -48.96 41.67 -4.17 111.46 -32.29 -5.21 -39.58 -20.83 -15.63 -100c0,0 -39.58,-30.21 -46.87,-30.21 -7.29,0 -64.58,13.54 -64.58,13.54l-30.21 -60.42 -45.83 -46.87 -73.96 0 -37.5 0 -20.83 -48.96c0,0 -26.04,-28.13 -34.37,-28.13 -7.29,0 -35.42,-5.21 -35.42,-5.21l-4.17 -28.13 20.83 7.29 30.21 -69.79 9.37 -26.04 14.58 -43.75 71.87 -32.29 20.83 -53.13 34.37 0 28.13 -7.29 -9.37 -39.58c0,0 16.67,-2.08 35.42,-13.54 18.75,-11.46 20.83,13.54 20.83,13.54 0,0 0,14.58 -2.08,25 -2.08,9.37 -2.08,35.42 -2.08,35.42l2.08 16.67 39.58 13.54 90.63 -7.29 32.29 0 26.04 -28.13 -43.75 -2.08c0,0 -48.96,-53.13 -56.25,-53.13 -7.29,0 -34.37,-9.37 -34.37,-9.37l16.67 -28.13 55.21 -26.04 11.46 -36.46 26.04 -60.42 30.21 0 15.63 -9.37 9.37 -13.54 -9.37 -16.67 -53.13 0c-13.54,0 -20.83,-34.37 -20.83,-34.37l18.75 -32.29 51.04 -13.54 71.87 34.37 58.33 22.92 53.13 32.29 15.63 22.92c0,0 -13.54,22.92 -15.63,30.21 -2.08,7.29 -11.46,39.58 -11.46,39.58l-5.21 35.42 -20.83 46.87 -45.83 0 -2.08 -11.46 -13.54 0 -9.37 22.92 2.08 15.63 83.33 5.21 32.29 22.92 7.29 37.5 81.25 46.87 13.54 34.37 28.13 11.46 13.54 -58.33 67.7 0 35.42 -32.29 -22.92 -26.04c0,0 -39.58,-48.96 -53.13,-53.13 -13.54,-4.17 -5.21,-16.67 -5.21,-16.67l9.37 -26.04 13.54 15.63c0,0 35.42,41.67 55.21,55.21 18.75,13.54 20.83,-7.29 20.83,-7.29 0,0 35.42,-53.13 41.67,-55.21 5.21,-2.08 35.42,-16.67 35.42,-16.67l0 -48.96 -58.33 0c-9.37,0 -16.67,-34.37 -16.67,-34.37l-26.04 0 -90.63 -18.75 -2.08 -26.04 39.58 -22.92 -11.46 -92.71 -39.58 -45.83 -125 -11.46c0,0 -97.92,-81.25 -125,-81.25l-92.71 0 -18.75 -26.04 -18.75 -2.08 0 18.75 -35.42 13.54 0 37.5 -9.37 32.29c0,0 -18.75,4.17 -25,4.17 -5.21,0 -5.21,-30.21 -5.21,-30.21l2.08 -43.75 -32.29 0 -4.17 -34.37 -32.29 -0c0,0 -9.37,20.83 -14.58,28.13 -5.21,7.29 -4.17,46.87 -5.21,53.13 -2.08,5.21 0,30.21 0,30.21 0,0 16.67,11.46 22.92,34.37 5.21,22.92 16.67,13.54 16.67,13.54l30.21 9.37 13.54 26.04 26.04 4.17c0,0 7.29,26.04 7.29,32.29 0,6.25 -18.75,28.13 -30.21,28.13 -11.46,0 0,13.54 0,22.92 0,9.37 -18.75,7.29 -18.75,7.29l-32.29 5.21 -35.42 -53.13 -77.08 -4.17 -7.29 -30.21 -37.5 -56.25 -0 -41.67 -28.13 -7.29 -13.54 -22.92 20.83 -22.92 34.37 -16.67 46.87 -16.67 0 -20.83c0,0 -20.83,-26.04 -26.04,-26.04 -5.21,0 -73.96,16.67 -73.96,16.67l-45.83 18.75 7.29 69.79 0 94.79 22.92 46.87 30.21 18.75 -7.29 25 -20.83 18.75 -43.75 2.08 0 -35.42c0,-11.46 -7.29,-13.54 -15.63,-20.83 -7.29,-7.29 -16.67,-11.46 -16.67,-11.46 0,0 -25,11.46 -30.21,15.63 -5.21,4.17 -9.37,20.83 -9.37,20.83l9.37 9.37 20.83 4.17 0 20.83 -22.92 -2.08 -65.63 7.29 -7.29 25c0,0 -34.37,-4.17 -41.67,-20.83 -7.29,-16.67 -2.08,-18.75 -2.08,-18.75 0,0 -39.58,-11.46 -45.83,-11.46 -5.21,0 0,20.83 0,20.83l-62.49 -0c-15.63,0 -43.75,4.17 -43.75,4.17l-39.58 20.83 -11.46 39.58 -11.46 -7.29 -28.13 -26.04c0,0 -25,-28.13 -32.29,-28.13 -7.29,0 -9.37,26.04 -9.37,26.04l-88.54 0c-9.37,0 -2.08,-26.04 -2.08,-26.04l45.83 -22.92 13.54 -11.46 41.66 0 9.37 5.21 7.29 11.46c0,0 18.75,11.46 20.83,16.67 2.08,5.21 28.13,0 28.13,0l11.46 -5.21 7.29 -9.37 22.92 -35.42 58.33 0 48.96 0 30.21 11.46 13.54 9.37 18.75 -13.54 15.63 -20.83 0 -71.87 -77.08 -76.04 -13.54 -83.33 -30.21 -4.17 0 35.42 -37.5 5.21 0 30.21 -26.04 16.67 -26.04 -53.13 -166.67 -9.37 -45.83 0.01c-5.21,0 -5.21,-20.83 -5.21,-20.83l14.58 -25 -11.46 -9.37 -30.21 -16.67 -97.92 0z"/>
   <path class="fil1" d="M4348.96 3742.19l7.29 0 43.75 0c0,0 5.21,-20.83 0,-30.21 -5.21,-9.37 -23.96,-20.83 -23.96,-20.83l-27.08 0c0,0 -13.54,-20.83 -16.67,-26.04 -4.17,-5.21 -28.13,-26.04 -28.13,-32.29 0,-5.21 13.54,-11.46 0,-16.67 -13.54,-5.21 -39.58,-9.37 -39.58,-9.37 0,0 -26.04,-16.67 -26.04,0l0 39.58c0,5.21 67.71,25 67.71,25 0,0 11.46,45.83 14.58,45.83 1.04,-1.04 28.13,25 28.13,25z"/>
   <path class="fil1" d="M4481.25 3834.9l0 -22.92 -32.29 0 15.63 -25c0,0 38.54,-11.46 38.54,-18.75l0 -26.04 34.37 0 0 16.67 39.58 4.17 11.46 37.5 -13.54 11.46 -22.92 15.63c0,0 -15.63,13.54 -25,7.29 -8.33,-5.2 -45.83,0 -45.83,0z"/>
   <path class="fil1" d="M3160.42 1297.4l23.96 -34.37 26.04 -0 0 17.71 10.42 31.25c0,0 26.04,55.21 32.29,44.79 6.25,-10.42 40.63,-12.5 40.63,-12.5l32.29 -10.42 18.75 23.96c0,0 -23.96,37.5 0,39.58 23.96,2.08 57.29,-4.17 68.75,0 12.5,4.17 14.58,-2.08 14.58,-8.33 0,-6.25 10.42,-16.67 26.04,-16.67 16.67,0 70.83,-14.58 70.83,-14.58l-8.33 -28.13 -25 -35.42c0,0 4.17,-30.21 -2.08,-32.29 -6.25,-2.08 -30.21,0 -30.21,0 0,0 -28.13,20.83 -28.13,26.04 0,6.25 -16.67,51.04 -16.67,51.04l-36.46 -10.42 -4.17 -31.25 -40.63 -2.08 -2.08 16.67 -70.83 -26.04 -14.58 -38.54 0 -44.79 -95.84 0 0 36.46 -32.29 16.67 -34.37 0c0,0 -4.17,39.58 0,44.79 4.17,4.17 8.33,-6.25 22.92,0 15.63,6.25 54.17,-3.12 54.17,-3.12z"/>
   <path class="fil1" d="M3409.38 1203.65l16.67 0 22.92 -8.33 0 -26.04 -51.04 0 0 34.37c0,0 -18.75,20.83 0,20.83l18.75 0 -7.29 -20.83z"/>
   <path class="fil1" d="M3586.46 1093.23l0 57.29 14.58 18.75c0,0 26.04,-2.08 38.54,0 12.5,2.08 12.5,6.25 23.96,18.75l12.5 12.5c0,0 14.58,-16.67 26.04,4.17 12.5,20.83 -2.08,21.87 12.5,20.83 14.58,-2.08 16.67,-12.5 16.67,-27.08l0 -52.08c0,0 18.75,-14.58 0,-18.75 -18.75,-4.17 -77.08,-4.17 -77.08,-4.17l-40.63 -4.17 0 -23.96 -27.08 -0.01 0 -2.08z"/>
   <path class="fil1" d="M3739.59 1368.23l0 -23.96 -22.92 0c0,0 -28.13,-4.17 -28.13,-12.5l0 -31.25c0,0 6.25,-11.46 25,-11.46l43.75 0 0 28.13 22.92 0c0,0 -4.17,10.42 0,30.21l4.17 20.83 -28.13 8.33 -16.66 -8.34z"/>
   <path class="fil1" d="M3736.46 1508.85l0 16.67 3.13 34.37 44.79 0c10.42,0 16.67,-34.37 16.67,-34.37 0,0 -4.17,-16.67 10.42,-16.67 14.58,0 40.63,20.83 23.96,0 -16.67,-20.83 -36.46,-30.21 -36.46,-30.21l-29.17 -0 -4.17 -26.04 -26.04 -22.92 -20.83 0 -12.5 26.04 -8.33 8.33c0,0 -36.46,-20.83 -35.42,2.08 1.04,22.92 25,28.13 25,28.13l38.54 -0 10.42 14.58z"/>
   <path class="fil1" d="M3855.21 1310.94l26.04 -10.42 0 -21.87 0 -40.63 -26.04 0c0,0 -16.67,6.25 -15.63,14.58 1.04,8.33 -11.46,34.37 0,36.46 11.46,2.09 15.63,21.88 15.63,21.88z"/>
   <path class="fil1" d="M3963.54 1398.44l0 -45.83c0,0 -34.37,-26.04 -36.46,-32.29 -2.08,-6.25 -4.17,-16.67 0,-30.21 4.17,-14.58 16.67,-28.13 16.67,-28.13l0 28.13 43.75 0 0 22.92c0,0 10.42,19.79 23.96,17.71 14.58,-2.08 36.46,-17.71 36.46,-17.71l16.67 30.21 0 14.58c0,0 55.21,6.25 65.63,6.25l65.63 -0 89.58 0 38.54 14.58 -20.83 21.87 -119.79 0 -89.58 0 -85.42 0 -44.79 0 0 -2.08z"/>
   <g>
    <path class="fil1" d="M4303.13 1319.27c1.04,0 1.04,0 0,0 0,0 0,0 0,0l0 0zm381.25 -439.58c-4.17,3.13 -25,1.04 -46.87,0 -21.87,-1.04 -43.75,-3.13 -51.04,0 -14.58,6.25 -85.42,0 -85.42,0l-153.13 0 -34.37 36.46 -148.96 0 0 36.46 -55.21 0 -4.17 15.63 -68.75 0 -43.75 0 35.42 55.21 -63.54 0 2.08 -38.54c0,0 -42.71,-14.58 -57.29,-16.67 -14.58,-2.08 -10.42,8.33 -14.58,14.58 -4.17,6.25 -22.92,34.37 -22.92,34.37l-23.96 30.21 -9.37 34.37 31.25 10.42 32.29 14.58 0 34.37 40.63 26.04 23.96 27.08c0,0 23.96,-27.08 26.04,-37.5 2.08,-9.37 26.04,-1.04 26.04,-1.04l16.67 22.92c0,0 20.83,-6.25 26.04,-12.5 6.25,-6.25 28.13,-6.25 34.37,-9.37 5.21,-4.17 45.83,9.37 45.83,9.37 0,0 2.08,14.58 0,27.08 -2.08,13.54 -23.96,19.79 -30.21,27.08 -6.25,8.33 -36.46,10.42 -40.63,14.58 -4.17,4.17 -19.79,36.46 -19.79,36.46 0,0 0,22.92 -4.17,36.46 -4.17,14.58 38.54,0 44.79,0 6.25,0 102.08,0 102.08,0 0,0 94.79,6.25 107.29,8.33 -7.29,-4.17 -11.46,-59.37 -11.46,-59.37l20.83 -64.58 117.7 0.01 -2.08 -103.13 38.54 0 89.58 0 6.25 -17.71 32.29 0 2.08 -33.33 44.79 -2.08 14.58 6.25 55.21 -36.46 53.13 -36.46c0,0 28.13,-6.25 40.63,-6.25 12.5,0 14.58,-22.92 14.58,-22.92l-28.13 -23.96c0,0 2.08,-23.96 0,-30.21 -2.08,-6.25 -30.21,-11.46 -30.21,-11.46 0,0 -22.92,-1.04 -43.75,-1.04 -14.58,3.12 -28.12,3.12 -31.24,6.25z"/>
   </g>
   <path class="fil1" d="M4053.13 1274.48c0,0 16.67,-32.29 20.83,-36.46 4.17,-4.17 34.37,-6.25 40.63,-14.58 6.25,-8.33 28.13,-14.58 30.21,-27.08 2.08,-13.54 0,-27.08 0,-27.08 0,0 -39.58,-13.54 -45.83,-9.37 -5.21,4.17 -28.13,4.17 -34.37,9.37 -6.25,6.25 -26.04,12.5 -26.04,12.5l-16.67 -22.92c0,0 -23.96,-9.37 -26.04,1.04 -2.08,9.37 -26.04,37.5 -26.04,37.5l-23.96 -27.08 -40.63 -26.04 0 -34.37 -32.29 -14.58 -31.25 -10.42 9.37 -34.37 23.96 -30.21c0,0 18.75,-28.13 22.92,-34.37 4.17,-6.25 0,-16.67 14.58,-14.58 14.58,2.08 57.29,16.67 57.29,16.67l-2.08 38.54 63.55 -0.01 -35.42 -55.21 43.75 0 68.75 0 4.17 -15.63 55.21 0 0 -36.46 148.96 0 34.37 -36.46 153.13 -0c0,0 70.83,6.25 85.42,0 14.58,-6.25 89.58,6.25 97.92,0 8.33,-6.25 75,-2.08 75,-2.08 0,0 28.13,6.25 30.21,11.46 2.08,6.25 0,30.21 0,30.21l28.13 23.96c0,0 -2.08,22.92 -14.58,22.92 -12.5,0 -40.63,6.25 -40.63,6.25l-53.13 36.46 -55.21 36.46 -14.58 -6.25 -44.79 2.08 -2.08 33.33 -32.3 0.01 -6.25 17.71 -89.58 -0 -38.54 0 2.08 103.13 -119.79 0 -20.83 64.58c0,0 4.17,59.37 12.5,59.37 8.33,0 -108.33,-8.33 -108.33,-8.33 0,0 -95.83,0 -102.08,0 -6.25,0 -48.96,14.58 -44.79,0 5.21,-16.66 5.21,-39.58 5.21,-39.58z"/>
  </g>
 </g>
</svg>
