<?xml version="1.0" encoding="UTF-8"?>
<!DOCTYPE svg PUBLIC "-//W3C//DTD SVG 1.1//EN" "http://www.w3.org/Graphics/SVG/1.1/DTD/svg11.dtd">
<!-- Creator: CorelDRAW -->
<svg xmlns="http://www.w3.org/2000/svg" xml:space="preserve" width="100%" height="100%" version="1.1" style="shape-rendering:geometricPrecision; text-rendering:geometricPrecision; image-rendering:optimizeQuality; fill-rule:evenodd; clip-rule:evenodd"
viewBox="0 0 6666.67 5000"
 xmlns:xlink="http://www.w3.org/1999/xlink"
 xmlns:xodm="http://www.corel.com/coreldraw/odm/2003">
 <defs>
  <style type="text/css">
   <![CDATA[
    .fil0 {fill:#003399;fill-rule:nonzero}
    .fil1 {fill:lime;fill-rule:nonzero}
   ]]>
  </style>
 </defs>
 <g id="Layer_x0020_1">
  <metadata id="CorelCorpID_0Corel-Layer"/>
  <polygon class="fil0" points="-0,0 6666.67,0 6666.67,5000 -0,5000 "/>
  <g id="_2483331442096">
   <path class="fil1" d="M3071.36 1502.08l-158.33 189.58 -157.29 0 -40.63 -54.17 -81.25 7.29 -109.37 142.71 -81.25 82.29 34.37 109.37 67.71 47.92 -40.63 67.71 -109.37 0c0,0 -150,13.54 -293.75,163.54 -69.79,104.17 -61.46,259.37 -61.46,259.37l-75 6.25 0 122.92 54.17 55.21c0,0 47.92,232.29 102.08,355.21l30.21 148.96 -4.17 64.58 -45.83 45.83 0 82.29 68.75 -0 0 47.92 75 0 0 -40.63 67.71 -13.54 0 -67.71 115.63 30.21 184.37 0 0 -91.67 184.37 -75 416.67 -34.37 266.67 232.29 102.08 61.46 122.92 163.54 150 88.54 27.08 54.17 347.92 -0 67.71 -115.63 130.21 0 0 -61.46 0 -225 136.46 -40.63 0 -67.71 136.46 -40.63 0 -409.37 -54.17 -95.83 0 -184.37 -102.08 0 -211.46 -361.46 -170.83 -122.92 -190.63 -88.54 7.29 -232.29 -75 0 -40.63 -95.83 1.04 -66.67 -122.92 -40.63c0,0 -56.25,189.58 -56.25,210.42 0,20.83 -40.63,82.29 -40.63,82.29l0 129.17 -75 -6.25 -166.67 -136.46 0 -133.33 58.33 -54.17 0 -54.17 4.17 1.04 -4.17 -5.21 0 -3.13 -3.13 0 -30.21 -32.29c0,0 -95.83,27.08 -184.37,0 -29.17,-9.37 -58.33,-12.5 -83.33,-12.5 -54.17,-1.04 -89.58,11.46 -89.58,11.46z"/>
   <path class="fil1" d="M3696.36 802.08l0 127.08 37.5 52.08c0,0 7.29,104.17 0,127.08 -4.17,11.46 -4.17,40.63 -3.13,68.75 1.04,27.08 3.13,51.04 3.13,51.04l119.79 -52.08c0,0 150,30.21 129.17,52.08 -19.79,21.87 57.29,75 57.29,75 0,0 134.37,134.37 157.29,119.79 22.92,-14.58 22.92,0 22.92,0l59.37 0c0,0 0,-67.71 -75,-194.79 -75,-127.08 -30.21,-52.08 -59.37,-52.08 -30.21,0 -67.71,-30.21 -75,-52.08 -7.29,-22.92 44.79,-37.5 44.79,-37.5l0 -44.79 0 -61.46 -67.71 -51.04 -105.21 -0 0 -82.29c0,0 -171.87,-96.87 -227.08,-112.5 -6.25,-2.08 -10.42,-2.08 -14.58,-2.08 -31.25,0 -4.17,50 -4.17,69.79z"/>
   <path class="fil1" d="M4209.9 4173.96c-15.63,0 -28.13,-15.63 -28.13,-35.42 0,-19.79 4.17,-47.92 8.33,-62.5 5.21,-15.63 25,-28.13 45.83,-28.13 20.83,0 41.67,14.58 46.87,31.25 6.25,17.71 19.79,36.46 31.25,41.67 11.46,6.25 29.17,11.46 39.58,12.5 10.42,1.04 15.63,37.5 12.5,82.29l7.29 10.42 7.29 10.42c-4.17,7.29 -20.83,17.71 -36.46,22.92 -16.67,5.21 -37.5,8.33 -46.87,8.33 -9.37,0 -22.92,-7.29 -29.17,-15.63 -6.25,-8.33 -14.58,-23.96 -17.71,-33.33 -3.13,-9.37 1.04,-27.08 8.33,-38.54l-23.96 -3.13 -25.01 -3.12z"/>
  </g>
 </g>
</svg>
