<?xml version="1.0" encoding="UTF-8"?>
<!DOCTYPE svg PUBLIC "-//W3C//DTD SVG 1.1//EN" "http://www.w3.org/Graphics/SVG/1.1/DTD/svg11.dtd">
<!-- Creator: CorelDRAW -->
<svg xmlns="http://www.w3.org/2000/svg" xml:space="preserve" width="100%" height="100%" version="1.1" style="shape-rendering:geometricPrecision; text-rendering:geometricPrecision; image-rendering:optimizeQuality; fill-rule:evenodd; clip-rule:evenodd"
viewBox="0 0 6666.67 5000"
 xmlns:xlink="http://www.w3.org/1999/xlink"
 xmlns:xodm="http://www.corel.com/coreldraw/odm/2003">
 <defs>
  <style type="text/css">
   <![CDATA[
    .fil0 {fill:#003399;fill-rule:nonzero}
    .fil1 {fill:lime;fill-rule:nonzero}
   ]]>
  </style>
 </defs>
 <g id="Layer_x0020_1">
  <metadata id="CorelCorpID_0Corel-Layer"/>
  <polygon class="fil0" points="-0,0 6666.67,0 6666.67,5000 -0,5000 "/>
  <g id="_2483292473904">
   <g>
    <path class="fil1" d="M2916.66 1230.21l-87.5 34.37 -15.63 38.54 -76.04 27.08 -87.5 0c0,0 -27.08,38.54 22.92,45.83 50,7.29 57.29,57.29 57.29,83.33 0,27.08 -4.17,98.96 -4.17,98.96l0 94.79 -83.33 38.54 0 64.58 22.92 4.17 -22.92 41.67 0 87.5c0,0 30.21,11.46 41.67,11.46 11.46,0 30.21,83.33 30.21,83.33l80.21 179.17c0,0 57.29,41.67 87.5,152.08 30.21,110.42 11.46,422.92 11.46,422.92 0,0 -53.13,213.54 -106.25,255.21 -17.71,29.17 11.46,209.37 11.46,209.37l18.75 7.29 0 53.13 0 38.54 -30.21 18.75 4.17 34.37 -4.17 71.87 -27.08 38.54c0,0 7.29,30.21 18.75,30.21 11.46,0 22.92,80.21 22.92,80.21l22.92 56.25c0,0 14.58,61.46 45.83,61.46 30.21,0 60.42,-190.63 126.04,-197.92 64.58,-7.29 38.54,-186.46 38.54,-186.46l38.54 -53.13 18.74 0 0 -38.54 -27.08 -45.83 27.08 -30.21 60.42 -18.75 57.29 -50 80.21 -30.21 0 -103.13 94.79 -34.37 68.75 -76.04 57.29 -48.96 34.37 -197.92 133.33 -110.42 106.25 -18.75 -0 -76.03 41.67 -64.58 0 -60.42 76.04 -22.92 0 -133.33 91.67 -117.71c0,0 38.54,-15.63 27.08,-91.67 -11.46,-76.04 -71.87,-34.37 -98.96,-34.37 -27.08,0 -57.29,-87.5 -57.29,-87.5l-133.33 -18.75 -50 -64.58c0,0 -87.5,0 -103.13,34.37 -15.63,34.37 -38.54,-18.75 -38.54,-18.75l11.46 -140.63 -71.87 -68.75 -110.42 -34.37 -50 -18.75 -18.75 -76.04 -87.5 -60.42 -160.41 0.01 -60.42 -64.58 -76.04 0 0 -3.13z"/>
   </g>
   <g>
    <path class="fil1" d="M2947.91 3764.59l94.79 4.17 3.13 -25 25 -8.33 -8.33 -13.54 -26.04 0 1.04 -22.92 -22.92 -7.29 0 -22.92 -51.04 0 -43.75 0c0,0 -3.13,59.37 -3.13,61.46 0,2.08 21.87,19.79 26.04,19.79 4.17,0 4.17,19.79 4.17,19.79l1.04 -5.2zm0 0l0 0 0 0z"/>
   </g>
  </g>
 </g>
</svg>
