<?xml version="1.0" encoding="UTF-8"?>
<!DOCTYPE svg PUBLIC "-//W3C//DTD SVG 1.1//EN" "http://www.w3.org/Graphics/SVG/1.1/DTD/svg11.dtd">
<!-- Creator: CorelDRAW 2019 (64-Bit) -->
<svg xmlns="http://www.w3.org/2000/svg" xml:space="preserve" width="200px" height="150px" version="1.1" style="shape-rendering:geometricPrecision; text-rendering:geometricPrecision; image-rendering:optimizeQuality; fill-rule:evenodd; clip-rule:evenodd"
viewBox="0 0 200 150"
 xmlns:xlink="http://www.w3.org/1999/xlink">
 <defs>
  <style type="text/css">
   <![CDATA[
    .fil0 {fill:#5E3F87}
   ]]>
  </style>
 </defs>
 <g id="Слой_x0020_1">
  <metadata id="CorelCorpID_0Corel-Layer"/>
  <g id="g1497">
   <path id="rect1377" class="fil0" d="M0 0l0 45.09 200 0 0 -45.09 -200 0zm9.64 9.39l8.89 0 0 26.31 -8.89 0 0 -26.31zm17.75 0l8.89 0 0 26.31 -8.89 0 0 -26.31zm17.74 0l8.89 0 0 26.31 -8.89 0 0 -26.31z"/>
   <path id="rect1377-9" class="fil0" d="M0 52.46l0 45.08 200 0 0 -45.08 -200 0zm9.64 9.39l8.89 0 0 26.3 -8.89 0 0 -26.3zm17.75 0l8.89 0 0 26.3 -8.89 0 0 -26.3zm17.74 0l8.89 0 0 26.3 -8.89 0 0 -26.3z"/>
   <path id="rect1377-0" class="fil0" d="M0 104.91l0 45.09 200 0 0 -45.09 -200 0zm9.64 9.39l8.89 0 0 26.31 -8.89 0 0 -26.31zm17.75 0l8.89 0 0 26.31 -8.89 0 0 -26.31zm17.74 0l8.89 0 0 26.31 -8.89 0 0 -26.31z"/>
   <rect id="rect1423" class="fil0" x="9.65" y="43.06"/>
   <rect id="rect1423-5" class="fil0" x="9.65" y="95.07"/>
   <rect id="rect1423-6" class="fil0" x="180.99" y="43.14"/>
   <rect id="rect1423-5-7" class="fil0" x="180.99" y="95.14"/>
  </g>
 </g>
</svg>
